<mxfile host="app.diagrams.net" modified="2021-04-15T06:28:35.293Z" agent="5.0 (Windows NT 10.0; Win64; x64) AppleWebKit/537.36 (KHTML, like Gecko) Chrome/89.0.4389.114 Safari/537.36" etag="yGF_ICq5Kx0aG9aoMXbJ" version="14.5.10" type="github">
  <diagram id="05wWOE2xG49F_wsYTMP1" name="Page-1">
    <mxGraphModel dx="1422" dy="794" grid="1" gridSize="10" guides="1" tooltips="1" connect="1" arrows="1" fold="1" page="1" pageScale="1" pageWidth="850" pageHeight="1100" math="0" shadow="0">
      <root>
        <mxCell id="0" />
        <mxCell id="1" parent="0" />
        <mxCell id="yClWvBl9pkC-klE0QE5b-11" value="" style="rounded=0;whiteSpace=wrap;html=1;fillColor=none;" vertex="1" parent="1">
          <mxGeometry x="50" y="120" width="750" height="500" as="geometry" />
        </mxCell>
        <mxCell id="yClWvBl9pkC-klE0QE5b-31" style="edgeStyle=orthogonalEdgeStyle;rounded=0;orthogonalLoop=1;jettySize=auto;html=1;exitX=0.75;exitY=0;exitDx=0;exitDy=0;entryX=0.5;entryY=1;entryDx=0;entryDy=0;dashed=1;" edge="1" parent="1" source="yClWvBl9pkC-klE0QE5b-1" target="yClWvBl9pkC-klE0QE5b-9">
          <mxGeometry relative="1" as="geometry">
            <Array as="points">
              <mxPoint x="520" y="300" />
              <mxPoint x="520" y="180" />
              <mxPoint x="600" y="180" />
            </Array>
          </mxGeometry>
        </mxCell>
        <mxCell id="yClWvBl9pkC-klE0QE5b-33" style="edgeStyle=orthogonalEdgeStyle;rounded=0;orthogonalLoop=1;jettySize=auto;html=1;exitX=0.25;exitY=0;exitDx=0;exitDy=0;entryX=0.5;entryY=1;entryDx=0;entryDy=0;dashed=1;" edge="1" parent="1" source="yClWvBl9pkC-klE0QE5b-1" target="yClWvBl9pkC-klE0QE5b-10">
          <mxGeometry relative="1" as="geometry">
            <Array as="points">
              <mxPoint x="360" y="300" />
              <mxPoint x="360" y="180" />
              <mxPoint x="250" y="180" />
            </Array>
          </mxGeometry>
        </mxCell>
        <mxCell id="yClWvBl9pkC-klE0QE5b-1" value="Hệ thống quy trình nội bộ HRM" style="whiteSpace=wrap;html=1;" vertex="1" parent="1">
          <mxGeometry x="340" y="300" width="200" height="60" as="geometry" />
        </mxCell>
        <mxCell id="yClWvBl9pkC-klE0QE5b-27" style="edgeStyle=orthogonalEdgeStyle;rounded=0;orthogonalLoop=1;jettySize=auto;html=1;exitX=1;exitY=0;exitDx=0;exitDy=0;" edge="1" parent="1" source="yClWvBl9pkC-klE0QE5b-1" target="yClWvBl9pkC-klE0QE5b-2">
          <mxGeometry relative="1" as="geometry">
            <Array as="points">
              <mxPoint x="540" y="310" />
              <mxPoint x="660" y="310" />
            </Array>
          </mxGeometry>
        </mxCell>
        <mxCell id="yClWvBl9pkC-klE0QE5b-2" value="Quản lí OKRs" style="ellipse;whiteSpace=wrap;html=1;" vertex="1" parent="1">
          <mxGeometry x="600" y="210" width="120" height="60" as="geometry" />
        </mxCell>
        <mxCell id="yClWvBl9pkC-klE0QE5b-28" style="edgeStyle=orthogonalEdgeStyle;rounded=0;orthogonalLoop=1;jettySize=auto;html=1;" edge="1" parent="1" source="yClWvBl9pkC-klE0QE5b-1" target="yClWvBl9pkC-klE0QE5b-3">
          <mxGeometry relative="1" as="geometry" />
        </mxCell>
        <mxCell id="yClWvBl9pkC-klE0QE5b-3" value="Quản lý tuyển dụng" style="ellipse;whiteSpace=wrap;html=1;" vertex="1" parent="1">
          <mxGeometry x="380" y="140" width="120" height="60" as="geometry" />
        </mxCell>
        <mxCell id="yClWvBl9pkC-klE0QE5b-25" style="edgeStyle=orthogonalEdgeStyle;rounded=0;orthogonalLoop=1;jettySize=auto;html=1;" edge="1" parent="1" source="yClWvBl9pkC-klE0QE5b-1" target="yClWvBl9pkC-klE0QE5b-5">
          <mxGeometry relative="1" as="geometry">
            <Array as="points">
              <mxPoint x="520" y="390" />
              <mxPoint x="520" y="390" />
            </Array>
          </mxGeometry>
        </mxCell>
        <mxCell id="yClWvBl9pkC-klE0QE5b-5" value="Quản lí chấm công" style="ellipse;whiteSpace=wrap;html=1;" vertex="1" parent="1">
          <mxGeometry x="460" y="490" width="120" height="60" as="geometry" />
        </mxCell>
        <mxCell id="yClWvBl9pkC-klE0QE5b-30" style="edgeStyle=orthogonalEdgeStyle;rounded=0;orthogonalLoop=1;jettySize=auto;html=1;exitX=0;exitY=0.75;exitDx=0;exitDy=0;entryX=1;entryY=0.5;entryDx=0;entryDy=0;" edge="1" parent="1" source="yClWvBl9pkC-klE0QE5b-1" target="yClWvBl9pkC-klE0QE5b-6">
          <mxGeometry relative="1" as="geometry">
            <Array as="points">
              <mxPoint x="160" y="345" />
              <mxPoint x="160" y="420" />
            </Array>
          </mxGeometry>
        </mxCell>
        <mxCell id="yClWvBl9pkC-klE0QE5b-6" value="Quản lý dự án" style="ellipse;whiteSpace=wrap;html=1;" vertex="1" parent="1">
          <mxGeometry x="100" y="390" width="120" height="60" as="geometry" />
        </mxCell>
        <mxCell id="yClWvBl9pkC-klE0QE5b-29" style="edgeStyle=orthogonalEdgeStyle;rounded=0;orthogonalLoop=1;jettySize=auto;html=1;exitX=0;exitY=0.25;exitDx=0;exitDy=0;" edge="1" parent="1" source="yClWvBl9pkC-klE0QE5b-1" target="yClWvBl9pkC-klE0QE5b-7">
          <mxGeometry relative="1" as="geometry" />
        </mxCell>
        <mxCell id="yClWvBl9pkC-klE0QE5b-7" value="Quản lí phòng họp" style="ellipse;whiteSpace=wrap;html=1;" vertex="1" parent="1">
          <mxGeometry x="100" y="210" width="120" height="60" as="geometry" />
        </mxCell>
        <mxCell id="yClWvBl9pkC-klE0QE5b-26" style="edgeStyle=orthogonalEdgeStyle;rounded=0;orthogonalLoop=1;jettySize=auto;html=1;exitX=1;exitY=1;exitDx=0;exitDy=0;" edge="1" parent="1" source="yClWvBl9pkC-klE0QE5b-1" target="yClWvBl9pkC-klE0QE5b-8">
          <mxGeometry relative="1" as="geometry">
            <Array as="points">
              <mxPoint x="540" y="350" />
              <mxPoint x="660" y="350" />
            </Array>
          </mxGeometry>
        </mxCell>
        <mxCell id="yClWvBl9pkC-klE0QE5b-8" value="Quản lí đơn từ" style="ellipse;whiteSpace=wrap;html=1;" vertex="1" parent="1">
          <mxGeometry x="600" y="390" width="120" height="60" as="geometry" />
        </mxCell>
        <mxCell id="yClWvBl9pkC-klE0QE5b-9" value="Google Gmail" style="ellipse;whiteSpace=wrap;html=1;" vertex="1" parent="1">
          <mxGeometry x="540" width="120" height="60" as="geometry" />
        </mxCell>
        <mxCell id="yClWvBl9pkC-klE0QE5b-10" value="Google Drive" style="ellipse;whiteSpace=wrap;html=1;" vertex="1" parent="1">
          <mxGeometry x="190" width="120" height="60" as="geometry" />
        </mxCell>
        <mxCell id="yClWvBl9pkC-klE0QE5b-24" style="edgeStyle=orthogonalEdgeStyle;rounded=0;orthogonalLoop=1;jettySize=auto;html=1;exitX=0.25;exitY=1;exitDx=0;exitDy=0;entryX=0.5;entryY=0;entryDx=0;entryDy=0;" edge="1" parent="1" source="yClWvBl9pkC-klE0QE5b-1" target="yClWvBl9pkC-klE0QE5b-15">
          <mxGeometry relative="1" as="geometry">
            <Array as="points">
              <mxPoint x="365" y="360" />
            </Array>
          </mxGeometry>
        </mxCell>
        <mxCell id="yClWvBl9pkC-klE0QE5b-15" value="Quản lí hồ sơ và hợp đồng" style="ellipse;whiteSpace=wrap;html=1;" vertex="1" parent="1">
          <mxGeometry x="305" y="490" width="120" height="60" as="geometry" />
        </mxCell>
        <mxCell id="yClWvBl9pkC-klE0QE5b-32" value="Thông báo" style="text;html=1;align=center;verticalAlign=middle;resizable=0;points=[];autosize=1;strokeColor=none;" vertex="1" parent="1">
          <mxGeometry x="605" y="100" width="70" height="20" as="geometry" />
        </mxCell>
        <mxCell id="yClWvBl9pkC-klE0QE5b-34" value="Lưu trữ" style="text;html=1;align=center;verticalAlign=middle;resizable=0;points=[];autosize=1;strokeColor=none;" vertex="1" parent="1">
          <mxGeometry x="250" y="80" width="60" height="20" as="geometry" />
        </mxCell>
      </root>
    </mxGraphModel>
  </diagram>
</mxfile>
